<svg id="Capa_1" data-name="Capa 1" xmlns="http://www.w3.org/2000/svg" viewBox="0 0 471.95 87.8"><defs><style>.cls-1{fill:#e2c270;}.cls-2{fill:#bf0d0d;}</style></defs><path class="cls-1" d="M923.8,308.64c-17.4,23.26-27.72,46.73-29.74,74.65H873.42c1.82-22.86,14.77-50.58,31-68.18H863.31v-16H924v9.71Z" transform="translate(-452.05 -296.9)"/><path class="cls-2" d="M868.76,363.26c.21,9.71-6.67,20.23-24.07,20.23-16.39,0-25.09-8.9-25.09-20.63v-2.23h17.2v1.42c0,4.65,3,6.47,7.08,6.47,4.25,0,5.67-1.82,5.67-4.85,0-8.5-28.73-6.27-28.73-26.51,0-12.74,9.91-20.43,24.07-20.43,15.18,0,23.27,9.91,23.27,22.26v.6H851v-2c0-3.64-2.43-6.07-5.66-6.07-3.44,0-5.26,1.62-5.26,4.25,0,8.09,28.93,7.69,28.93,27.51Z" transform="translate(-452.05 -296.9)"/><path class="cls-2" d="M792.31,364.48V354c-7.28.4-10.72,3-10.72,7.89v2.63c0,3.84,2.23,5.86,5.46,5.86C790.7,370.34,792.31,368.12,792.31,364.48Zm24.89,18.81a30.24,30.24,0,0,1-4.25.2c-9.31,0-13-3-16-10.52-4.05,7.08-10.32,10.52-18.41,10.52-9.31,0-16.59-6.47-16.59-17.8v-.61c0-11.93,10.52-18.2,30.34-20v-7.48c0-3.85-.81-5.87-4.45-5.87-2.83,0-4.45,2-4.45,5.46v3.65H765V338c0-13.55,9.31-21.24,23.87-21.24,15.58,0,24.28,9.71,24.28,22.46V366.7c0,2.23,1.62,3.24,4.05,3.24v13.35" transform="translate(-452.05 -296.9)"/><path class="cls-2" d="M757.88,313.29c.21.2-20.23.2-20.23.2V298.93h20.44v14.56Z" transform="translate(-452.05 -296.9)"/><path class="cls-2" d="M758.09,383.29H737.45V317.94h20.84v65.35Z" transform="translate(-452.05 -296.9)"/><path class="cls-2" d="M733.37,317.54c0,.2-.61,20.84-.61,20.84-12.75-3-17.4,2.22-17.4,8.29v36.62H694.52V317.94h17.6l1.22,13.15c2.22-11.12,9.91-16.38,20-13.35Z" transform="translate(-452.05 -296.9)"/><path class="cls-2" d="M665.6,364.48V354c-7.29.4-10.73,3-10.73,7.89v2.63c0,3.84,2.23,5.86,5.47,5.86C664,370.34,665.6,368.12,665.6,364.48Zm24.68,18.81c.2.2-4.25.2-4.25.2-9.1,0-12.75-3-15.78-10.52-4.25,7.08-10.32,10.52-18.41,10.52-9.31,0-16.59-6.47-16.59-17.8v-.61c0-11.93,10.52-18.2,30.35-20v-7.48c0-3.85-.81-5.87-4.45-5.87-2.84,0-4.45,2-4.45,5.46v3.65H638.29V338c0-13.55,9.3-21.24,23.87-21.24,15.58,0,24.27,9.71,24.27,22.46V366.7c0,2.23,1.62,3.24,4.05,3.24v13.55l-.2-.2" transform="translate(-452.05 -296.9)"/><path class="cls-2" d="M631.77,383.29H610.94V337.77c0-3.24-1.83-5.66-4.46-5.66-3.23,0-5.46,2.83-5.46,6.07v45.11H580.18V317.94h18.21l1,10.73A18.68,18.68,0,0,1,617,316.73c10.12,0,15,6.88,15,17.4v49.16Z" transform="translate(-452.05 -296.9)"/><path class="cls-2" d="M551,364.48c.21,0,.21-10.52.21-10.52-7.29.4-10.73,3-10.73,7.89v2.63c0,3.84,2.23,5.86,5.47,5.86,3.64,0,5.26-2.22,5.26-5.86Zm24.89,18.81c.2.2-4.25.2-4.25.2-9.1,0-12.95-3-16-10.52-4,7.08-10.12,10.52-18.41,10.52-9.11,0-16.39-6.47-16.39-17.8v-.61c0-11.93,10.52-18.2,30.35-20v-7.48c0-3.85-1-5.87-4.66-5.87-2.63,0-4.24,2-4.24,5.46v3.65H523.9V338c0-13.55,9.11-21.24,23.68-21.24,15.78,0,24.27,9.71,24.27,22.46V366.7c0,2.23,1.62,3.24,4.25,3.24v13.55l-.2-.2" transform="translate(-452.05 -296.9)"/><path class="cls-2" d="M518,329.07H499.19v-4.85c0-7.49-4.66-11.33-12.55-11.33-9.1,0-14,5.05-14,13.35v29.54c0,7.68,5.26,12.94,14.16,12.94,7.89,0,11.94-4.24,11.94-11.12v-5.26h19v6.47c0,15.17-12.34,25.9-31.56,25.9-21.65,0-34.19-13.15-34.19-30.35V327.45c0-17.19,13.15-30.55,34.19-30.55,20.23,0,31.76,10.93,31.76,26.1Z" transform="translate(-452.05 -296.9)"/></svg>