<?xml version="1.0" encoding="UTF-8"?>
<!DOCTYPE svg PUBLIC "-//W3C//DTD SVG 1.1//EN" "http://www.w3.org/Graphics/SVG/1.1/DTD/svg11.dtd">
<!-- Creator: CorelDRAW Home & Student 2018 -->
<svg xmlns="http://www.w3.org/2000/svg" xml:space="preserve" width="282px" height="130px" version="1.1" style="shape-rendering:geometricPrecision; text-rendering:geometricPrecision; image-rendering:optimizeQuality; fill-rule:evenodd; clip-rule:evenodd"
viewBox="0 0 286.52 132.03"
 xmlns:xlink="http://www.w3.org/1999/xlink">
 <defs>
  <style type="text/css">
   <![CDATA[
    .fil3 {fill:#0D8DCC}
    .fil6 {fill:#0D8DCE}
    .fil1 {fill:#0F8CCC}
    .fil5 {fill:#2685B5}
    .fil0 {fill:#8D8F8C}
    .fil7 {fill:#9CD5F2}
    .fil4 {fill:#FDFDFD}
    .fil2 {fill:#FEFEFE}
   ]]>
  </style>
 </defs>
 <g id="Capa_x0020_1">
  <metadata id="CorelCorpID_0Corel-Layer"/>
  <g id="_583137072">
   <polygon class="fil0" points="29.56,92.47 0,92.47 0,127.37 65.35,127.37 65.35,127.14 68.24,127.14 68.24,126.92 70.02,126.92 70.02,126.7 71.57,126.7 71.57,126.48 72.24,126.48 72.24,126.26 73.58,126.26 73.58,126.03 74.02,126.03 74.02,125.81 74.91,125.81 74.91,125.59 75.58,125.59 75.58,125.37 76.24,125.37 76.24,125.14 76.91,125.14 76.91,124.92 77.58,124.92 77.58,124.7 78.02,124.7 78.02,124.48 78.69,124.48 78.69,124.25 79.13,124.25 79.13,124.03 79.58,124.03 79.58,123.81 80.24,123.81 80.24,123.59 80.69,123.59 80.69,123.37 81.13,123.37 81.13,123.14 81.58,123.14 81.58,122.92 82.02,122.92 82.02,122.7 82.24,122.7 82.24,122.48 82.69,122.48 82.69,122.25 83.13,122.25 83.13,122.03 83.58,122.03 83.58,121.81 83.8,121.81 83.8,121.59 84.24,121.59 84.24,121.37 84.69,121.37 84.69,121.14 84.91,121.14 84.91,120.92 85.36,120.92 85.36,120.7 85.58,120.7 85.58,120.48 86.02,120.48 86.02,120.25 86.25,120.25 86.25,120.03 86.47,120.03 86.47,119.81 86.91,119.81 86.91,119.59 87.13,119.59 87.13,119.36 87.36,119.36 87.36,119.14 87.8,119.14 87.8,118.92 88.02,118.92 88.02,118.7 88.25,118.7 88.25,118.48 88.47,118.48 88.47,118.25 88.69,118.25 88.69,118.03 89.14,118.03 89.14,117.81 89.36,117.81 89.36,117.59 89.58,117.59 89.58,117.36 89.8,117.36 89.8,117.14 90.02,117.14 90.02,116.92 90.25,116.92 90.25,116.7 90.47,116.7 90.47,116.48 90.69,116.48 90.69,116.25 90.91,116.25 90.91,116.03 91.14,116.03 91.14,115.81 91.36,115.81 91.36,115.59 91.58,115.59 91.58,115.36 91.8,115.36 91.8,115.14 92.02,115.14 92.02,114.92 92.25,114.92 92.25,114.7 92.47,114.7 92.47,114.47 92.69,114.47 92.69,114.25 92.91,114.25 92.91,113.81 93.14,113.81 93.14,113.59 93.36,113.59 93.36,113.36 93.58,113.36 93.58,113.14 93.8,113.14 93.8,112.92 94.03,112.92 94.03,112.47 94.25,112.47 94.25,112.25 94.47,112.25 94.47,112.03 94.69,112.03 94.69,111.58 94.91,111.58 94.91,111.36 95.14,111.36 95.14,111.14 95.36,111.14 95.36,110.7 95.58,110.7 95.58,110.47 95.8,110.47 95.8,110.03 96.03,110.03 96.03,109.81 96.25,109.81 96.25,109.36 96.47,109.36 96.47,108.92 96.69,108.92 96.69,108.69 96.91,108.69 96.91,108.25 97.14,108.25 97.14,107.81 97.36,107.81 97.36,107.58 97.58,107.58 97.58,107.14 97.8,107.14 97.8,106.69 98.03,106.69 98.03,106.25 98.25,106.25 98.25,105.81 98.47,105.81 98.47,105.36 98.69,105.36 98.69,104.92 98.92,104.92 98.92,104.47 99.14,104.47 99.14,103.81 99.36,103.81 99.36,103.36 99.58,103.36 99.58,102.69 99.8,102.69 99.8,102.25 100.03,102.25 100.03,101.58 100.25,101.58 100.25,100.92 100.47,100.92 100.47,100.25 100.69,100.25 100.69,99.36 100.92,99.36 100.92,98.47 101.14,98.47 101.14,97.58 101.36,97.58 101.36,96.91 101.58,96.91 101.58,95.8 101.81,95.8 101.81,94.02 102.03,94.02 102.03,92.02 102.25,92.02 102.25,66.46 72.69,66.46 72.69,84.91 72.46,84.91 72.46,86.02 72.24,86.02 72.24,86.69 72.02,86.69 72.02,87.36 71.8,87.36 71.8,87.8 71.57,87.8 71.57,88.25 71.35,88.25 71.35,88.47 71.13,88.47 71.13,88.91 70.91,88.91 70.91,89.13 70.69,89.13 70.69,89.58 70.46,89.58 70.46,89.8 70.24,89.8 70.24,90.02 70.02,90.02 70.02,90.25 69.8,90.25 69.8,90.47 69.57,90.47 69.57,90.69 69.13,90.69 69.13,90.91 68.91,90.91 68.91,91.14 68.69,91.14 68.69,91.36 68.24,91.36 68.24,91.58 67.8,91.58 67.8,91.8 67.35,91.8 67.35,92.02 66.68,92.02 66.68,92.25 66.24,92.25 66.24,92.47 64.68,92.47 64.68,92.69 29.56,92.69 "/>
   <polygon class="fil1" points="0,92.47 29.56,92.47 29.56,73.35 29.79,73.35 29.79,72.69 30.01,72.69 30.01,72.02 30.23,72.02 30.23,71.57 30.45,71.57 30.45,71.13 30.67,71.13 30.67,70.69 30.9,70.69 30.9,70.46 31.12,70.46 31.12,70.02 31.34,70.02 31.34,69.8 31.56,69.8 31.56,69.57 31.79,69.57 31.79,69.35 32.01,69.35 32.01,69.13 32.23,69.13 32.23,68.91 32.45,68.91 32.45,68.68 32.68,68.68 32.68,68.46 32.9,68.46 32.9,68.24 33.12,68.24 33.12,68.02 33.56,68.02 33.56,67.8 33.79,67.8 33.79,67.57 34.23,67.57 34.23,67.35 34.68,67.35 34.68,67.13 35.34,67.13 35.34,66.91 35.79,66.91 35.79,66.68 36.45,66.68 36.45,66.46 37.12,66.46 37.12,66.24 102.03,66.24 102.03,32.01 32.68,32.01 32.68,32.23 31.56,32.23 31.56,32.45 30.23,32.45 30.23,32.68 29.56,32.68 29.56,32.9 28.45,32.9 28.45,33.12 28.01,33.12 28.01,33.34 26.9,33.34 26.9,33.56 26.23,33.56 26.23,33.79 25.56,33.79 25.56,34.01 25.12,34.01 25.12,34.23 24.67,34.23 24.67,34.45 24.01,34.45 24.01,34.68 23.34,34.68 23.34,34.9 22.89,34.9 22.89,35.12 22.45,35.12 22.45,35.34 22.01,35.34 22.01,35.56 21.34,35.56 21.34,35.79 20.89,35.79 20.89,36.01 20.45,36.01 20.45,36.23 20.23,36.23 20.23,36.45 19.78,36.45 19.78,36.68 19.34,36.68 19.34,36.9 18.89,36.9 18.89,37.12 18.67,37.12 18.67,37.34 18.23,37.34 18.23,37.57 17.78,37.57 17.78,37.79 17.56,37.79 17.56,38.01 17.12,38.01 17.12,38.23 16.89,38.23 16.89,38.45 16.45,38.45 16.45,38.68 16.23,38.68 16.23,38.9 15.78,38.9 15.78,39.12 15.56,39.12 15.56,39.34 15.34,39.34 15.34,39.57 14.89,39.57 14.89,39.79 14.67,39.79 14.67,40.01 14.45,40.01 14.45,40.23 14.23,40.23 14.23,40.46 13.78,40.46 13.78,40.68 13.56,40.68 13.56,40.9 13.34,40.9 13.34,41.12 13.12,41.12 13.12,41.34 12.89,41.34 12.89,41.57 12.67,41.57 12.67,41.79 12.23,41.79 12.23,42.01 12,42.01 12,42.23 11.78,42.23 11.78,42.46 11.56,42.46 11.56,42.68 11.34,42.68 11.34,42.9 11.11,42.9 11.11,43.12 10.89,43.12 10.89,43.34 10.67,43.34 10.67,43.57 10.45,43.57 10.45,43.79 10.22,43.79 10.22,44.01 10,44.01 10,44.23 9.78,44.23 9.78,44.68 9.56,44.68 9.56,44.9 9.34,44.9 9.34,45.12 9.11,45.12 9.11,45.35 8.89,45.35 8.89,45.57 8.67,45.57 8.67,45.79 8.45,45.79 8.45,46.23 8.22,46.23 8.22,46.46 8,46.46 8,46.68 7.78,46.68 7.78,47.12 7.56,47.12 7.56,47.35 7.34,47.35 7.34,47.57 7.11,47.57 7.11,48.01 6.89,48.01 6.89,48.23 6.67,48.23 6.67,48.46 6.45,48.46 6.45,48.9 6.22,48.9 6.22,49.12 6,49.12 6,49.57 5.78,49.57 5.78,50.01 5.56,50.01 5.56,50.24 5.34,50.24 5.34,50.68 5.11,50.68 5.11,51.12 4.89,51.12 4.89,51.35 4.67,51.35 4.67,51.79 4.45,51.79 4.45,52.24 4.22,52.24 4.22,52.68 4,52.68 4,53.13 3.78,53.13 3.78,53.57 3.56,53.57 3.56,54.01 3.33,54.01 3.33,54.46 3.11,54.46 3.11,54.9 2.89,54.9 2.89,55.57 2.67,55.57 2.67,56.01 2.45,56.01 2.45,56.68 2.22,56.68 2.22,57.35 2,57.35 2,58.02 1.78,58.02 1.78,58.68 1.56,58.68 1.56,59.13 1.33,59.13 1.33,60.02 1.11,60.02 1.11,60.9 0.89,60.9 0.89,62.24 0.67,62.24 0.67,62.68 0.45,62.68 0.45,64.46 0.22,64.46 0.22,66.02 0,66.02 "/>
   <polygon class="fil2" points="72.69,66.46 37.34,66.46 37.34,66.68 35.79,66.68 35.79,66.91 35.34,66.91 35.34,67.13 34.68,67.13 34.68,67.35 34.23,67.35 34.23,67.57 33.79,67.57 33.79,67.8 33.56,67.8 33.56,68.02 33.12,68.02 33.12,68.24 32.9,68.24 32.9,68.46 32.68,68.46 32.68,68.68 32.45,68.68 32.45,68.91 32.23,68.91 32.23,69.13 32.01,69.13 32.01,69.35 31.79,69.35 31.79,69.57 31.56,69.57 31.56,69.8 31.34,69.8 31.34,70.02 31.12,70.02 31.12,70.46 30.9,70.46 30.9,70.69 30.67,70.69 30.67,71.13 30.45,71.13 30.45,71.57 30.23,71.57 30.23,72.02 30.01,72.02 30.01,72.69 29.79,72.69 29.79,73.35 29.56,73.35 29.56,92.69 64.68,92.69 64.68,92.47 66.24,92.47 66.24,92.25 66.68,92.25 66.68,92.02 67.35,92.02 67.35,91.8 67.8,91.8 67.8,91.58 68.24,91.58 68.24,91.36 68.69,91.36 68.69,91.14 68.91,91.14 68.91,90.91 69.13,90.91 69.13,90.69 69.57,90.69 69.57,90.47 69.8,90.47 69.8,90.25 70.02,90.25 70.02,90.02 70.24,90.02 70.24,89.8 70.46,89.8 70.46,89.58 70.69,89.58 70.69,89.13 70.91,89.13 70.91,88.91 71.13,88.91 71.13,88.47 71.35,88.47 71.35,88.25 71.57,88.25 71.57,87.8 71.8,87.8 71.8,87.36 72.02,87.36 72.02,86.69 72.24,86.69 72.24,86.02 72.46,86.02 72.46,84.91 72.69,84.91 "/>
   <polygon class="fil1" points="130.92,0 112.03,0 112.03,0.22 110.7,0.22 110.7,0.44 109.58,0.44 109.58,0.67 109.14,0.67 109.14,0.89 108.7,0.89 108.7,1.11 108.25,1.11 108.25,1.33 107.81,1.33 107.81,1.56 107.36,1.56 107.36,1.78 106.92,1.78 106.92,2 106.7,2 106.7,2.22 106.47,2.22 106.47,2.45 106.03,2.45 106.03,2.67 105.81,2.67 105.81,2.89 105.58,2.89 105.58,3.11 105.36,3.11 105.36,3.33 105.14,3.33 105.14,3.56 104.92,3.56 104.92,3.78 104.69,3.78 104.69,4.22 104.47,4.22 104.47,4.45 104.25,4.45 104.25,4.67 104.03,4.67 104.03,5.11 103.81,5.11 103.81,5.56 103.58,5.56 103.58,5.78 103.36,5.78 103.36,6.22 103.14,6.22 103.14,6.89 102.92,6.89 102.92,7.34 102.69,7.34 102.69,8 102.47,8 102.47,9.56 102.25,9.56 102.25,26.9 122.25,26.9 122.25,26.67 123.14,26.67 123.14,26.45 123.59,26.45 123.59,26.23 124.25,26.23 124.25,26.01 124.7,26.01 124.7,25.78 125.14,25.78 125.14,25.56 125.59,25.56 125.59,25.34 126.03,25.34 126.03,25.12 126.26,25.12 126.26,24.9 126.7,24.9 126.7,24.67 126.92,24.67 126.92,24.45 127.15,24.45 127.15,24.23 127.37,24.23 127.37,24.01 127.81,24.01 127.81,23.78 128.03,23.78 128.03,23.56 128.26,23.56 128.26,23.12 128.48,23.12 128.48,22.89 128.7,22.89 128.7,22.67 128.92,22.67 128.92,22.45 129.15,22.45 129.15,22.01 129.37,22.01 129.37,21.78 129.59,21.78 129.59,21.34 129.81,21.34 129.81,20.89 130.03,20.89 130.03,20.45 130.26,20.45 130.26,19.78 130.48,19.78 130.48,19.34 130.7,19.34 130.7,18.23 130.92,18.23 "/>
   <polygon class="fil0" points="179.16,76.91 177.38,76.91 177.38,77.13 176.27,77.13 176.27,77.35 175.38,77.35 175.38,77.58 174.71,77.58 174.71,77.8 174.05,77.8 174.05,78.02 173.6,78.02 173.6,78.24 173.16,78.24 173.16,100.03 179.83,100.03 179.83,81.13 180.49,81.13 180.49,80.91 181.38,80.91 181.38,80.69 183.83,80.69 183.83,80.91 184.49,80.91 184.49,81.13 184.94,81.13 184.94,81.35 185.16,81.35 185.16,81.58 185.38,81.58 185.38,81.8 185.6,81.8 185.6,82.24 185.83,82.24 185.83,82.69 186.05,82.69 186.05,100.03 192.72,100.03 192.72,82.47 192.5,82.47 192.5,81.35 192.27,81.35 192.27,80.91 192.05,80.91 192.05,80.47 191.83,80.47 191.83,80.02 191.61,80.02 191.61,79.58 191.38,79.58 191.38,79.35 191.16,79.35 191.16,79.13 190.94,79.13 190.94,78.91 190.72,78.91 190.72,78.69 190.5,78.69 190.5,78.47 190.27,78.47 190.27,78.24 189.83,78.24 189.83,78.02 189.61,78.02 189.61,77.8 189.16,77.8 189.16,77.58 188.49,77.58 188.49,77.35 187.83,77.35 187.83,77.13 186.94,77.13 186.94,76.91 185.83,76.91 185.83,76.69 179.16,76.69 "/>
   <path class="fil0" d="M256.96 86.47l0.22 0 0 -2 0.22 0 0 -0.67 0.22 0 0 -0.89 0.23 0 0 -0.44 0.22 0 0 -0.45 0.22 0 0 -0.44 0.22 0 0 -0.23 0.45 0 0 -0.22 0.22 0 0 -0.22 0.67 0 0 -0.22 1.33 0 0 0.22 0.67 0 0 0.22 0.44 0 0 0.22 0.22 0 0 0.23 0.23 0 0 0.22 0.22 0 0 0.44 0.22 0 0 0.45 0.22 0 0 0.67 0.23 0 0 0.66 0.22 0 0 1.78 0.22 0 0 5.78 -0.22 0 0 1.11 -0.22 0 0 0.67 -0.23 0 0 0.66 -0.22 0 0 0.45 -0.22 0 0 0.44 -0.22 0 0 0.23 -0.23 0 0 0.22 -0.22 0 0 0.22 -0.44 0 0 0.22 -2.45 0 0 -0.22 -0.44 0 0 -0.22 -0.22 0 0 -0.22 -0.23 0 0 -0.23 -0.22 0 0 -0.22 -0.22 0 0 -0.44 -0.22 0 0 -0.45 -0.23 0 0 -0.89 -0.22 0 0 -0.66 -0.22 0 0 -2 -0.22 0 0 -3.78zm1.11 -9.56l-0.89 0 0 0.22 -0.67 0 0 0.22 -0.44 0 0 0.23 -0.45 0 0 0.22 -0.44 0 0 0.22 -0.22 0 0 0.22 -0.45 0 0 0.23 -0.22 0 0 0.22 -0.22 0 0 0.22 -0.22 0 0 0.22 -0.23 0 0 0.22 -0.22 0 0 0.23 -0.22 0 0 0.22 -0.22 0 0 0.22 -0.23 0 0 0.45 -0.22 0 0 0.22 -0.22 0 0 0.44 -0.22 0 0 0.45 -0.23 0 0 0.44 -0.22 0 0 0.45 -0.22 0 0 0.44 -0.22 0 0 0.67 -0.22 0 0 0.66 -0.23 0 0 1.12 -0.22 0 0 6.22 0.22 0 0 1.11 0.23 0 0 0.67 0.22 0 0 0.66 0.22 0 0 0.45 0.22 0 0 0.67 0.22 0 0 0.44 0.23 0 0 0.22 0.22 0 0 0.45 0.22 0 0 0.44 0.22 0 0 0.22 0.23 0 0 0.23 0.22 0 0 0.22 0.22 0 0 0.22 0.22 0 0 0.45 0.45 0 0 0.22 0.22 0 0 0.22 0.22 0 0 0.22 0.22 0 0 0.22 0.45 0 0 0.23 0.22 0 0 0.22 0.45 0 0 0.22 0.66 0 0 0.22 0.45 0 0 0.23 0.66 0 0 0.22 1.78 0 0 0.22 2.45 0 0 -0.22 1.55 0 0 -0.22 0.67 0 0 -0.23 0.67 0 0 -0.22 0.44 0 0 -0.22 0.45 0 0 -0.22 0.44 0 0 -0.23 0.22 0 0 -0.22 0.23 0 0 -0.22 0.44 0 0 -0.22 0.22 0 0 -0.22 0.22 0 0 -0.23 0.23 0 0 -0.22 0.22 0 0 -0.22 0.22 0 0 -0.45 0.22 0 0 -0.22 0.23 0 0 -0.22 0.22 0 0 -0.44 0.22 0 0 -0.45 0.22 0 0 -0.44 0.22 0 0 -0.45 0.23 0 0 -0.44 0.22 0 0 -0.67 0.22 0 0 -0.67 0.22 0 0 -1.11 0.23 0 0 -1.78 0.22 0 0 -2.89 -0.22 0 0 -2.22 -0.23 0 0 -0.89 -0.22 0 0 -0.66 -0.22 0 0 -0.45 -0.22 0 0 -0.67 -0.23 0 0 -0.44 -0.22 0 0 -0.45 -0.22 0 0 -0.44 -0.22 0 0 -0.22 -0.22 0 0 -0.45 -0.23 0 0 -0.22 -0.22 0 0 -0.22 -0.22 0 0 -0.22 -0.22 0 0 -0.23 -0.23 0 0 -0.22 -0.22 0 0 -0.22 -0.22 0 0 -0.22 -0.22 0 0 -0.22 -0.22 0 0 -0.23 -0.45 0 0 -0.22 -0.22 0 0 -0.22 -0.45 0 0 -0.22 -0.44 0 0 -0.23 -0.45 0 0 -0.22 -0.66 0 0 -0.22 -0.89 0 0 -0.22 -4.89 0 0 0.22z"/>
   <path class="fil0" d="M155.37 91.58l0.23 0 0 -0.89 0.22 0 0 -0.44 0.22 0 0 -0.23 0.22 0 0 -0.22 0.23 0 0 -0.22 0.22 0 0 -0.22 0.22 0 0 -0.23 0.45 0 0 -0.22 0.66 0 0 -0.22 0.45 0 0 -0.22 0.66 0 0 -0.22 1.11 0 0 -0.23 1.56 0 0 8.45 -0.44 0 0 0.22 -3.34 0 0 -0.22 -0.89 0 0 -0.22 -0.44 0 0 -0.22 -0.22 0 0 -0.23 -0.23 0 0 -0.22 -0.22 0 0 -0.22 -0.22 0 0 -0.45 -0.22 0 0 -0.44 -0.23 0 0 -2.89zm0.89 -14.67l-1.55 0 0 0.22 -0.67 0 0 0.22 -0.89 0 0 0.23 -0.89 0 0 0.22 -0.66 0 0 0.22 -0.67 0 0 0.22 -0.45 0 0 0.45 0.23 0 0 0.66 0.22 0 0 0.45 0.22 0 0 0.67 0.22 0 0 0.66 0.23 0 0 0.45 0.22 0 0 0.44 0.67 0 0 -0.22 0.44 0 0 -0.22 0.67 0 0 -0.23 0.66 0 0 -0.22 1.11 0 0 -0.22 0.89 0 0 -0.22 3.12 0 0 0.22 0.66 0 0 0.22 0.45 0 0 0.22 0.44 0 0 0.23 0.22 0 0 0.22 0.23 0 0 0.22 0.22 0 0 0.45 0.22 0 0 2.44 -1.78 0 0 0.22 -1.11 0 0 0.23 -0.89 0 0 0.22 -1.11 0 0 0.22 -1.11 0 0 0.22 -0.67 0 0 0.22 -0.66 0 0 0.23 -0.45 0 0 0.22 -0.67 0 0 0.22 -0.44 0 0 0.22 -0.44 0 0 0.23 -0.45 0 0 0.22 -0.22 0 0 0.22 -0.45 0 0 0.22 -0.22 0 0 0.23 -0.22 0 0 0.22 -0.22 0 0 0.22 -0.23 0 0 0.22 -0.22 0 0 0.45 -0.22 0 0 0.22 -0.22 0 0 0.44 -0.22 0 0 0.67 -0.23 0 0 0.67 -0.22 0 0 3.78 0.22 0 0 0.66 0.23 0 0 0.67 0.22 0 0 0.22 0.22 0 0 0.45 0.22 0 0 0.22 0.22 0 0 0.44 0.23 0 0 0.23 0.22 0 0 0.22 0.22 0 0 0.22 0.45 0 0 0.22 0.22 0 0 0.22 0.44 0 0 0.23 0.45 0 0 0.22 0.44 0 0 0.22 0.45 0 0 0.22 0.66 0 0 0.23 0.89 0 0 0.22 1.56 0 0 0.22 5.33 0 0 -0.22 1.34 0 0 -0.22 1.55 0 0 -0.23 0.67 0 0 -0.22 0.89 0 0 -0.22 0.67 0 0 -0.22 0.44 0 0 -0.23 0.44 0 0 -0.22 0.23 0 0 -14.89 -0.23 0 0 -1.56 -0.22 0 0 -0.66 -0.22 0 0 -0.67 -0.22 0 0 -0.44 -0.22 0 0 -0.45 -0.23 0 0 -0.22 -0.22 0 0 -0.45 -0.22 0 0 -0.22 -0.22 0 0 -0.22 -0.23 0 0 -0.22 -0.22 0 0 -0.22 -0.22 0 0 -0.23 -0.44 0 0 -0.22 -0.23 0 0 -0.22 -0.44 0 0 -0.22 -0.45 0 0 -0.23 -0.66 0 0 -0.22 -0.89 0 0 -0.22 -0.67 0 0 -0.22 -5.56 0 0 0.22z"/>
   <path class="fil0" d="M227.84 86.69l-1.78 0 0 0.22 -1.56 0 0 0.22 -1.55 0 0 0.23 -0.89 0 0 0.22 -1.33 0 0 -1.78 0.22 0 0 -0.89 0.22 0 0 -1.33 0.22 0 0 -0.67 0.22 0 0 -0.44 0.23 0 0 -0.23 0.22 0 0 -0.44 0.22 0 0 -0.22 0.22 0 0 -0.23 0.23 0 0 -0.22 0.44 0 0 -0.22 0.22 0 0 -0.22 0.89 0 0 -0.22 1.34 0 0 0.22 0.88 0 0 0.22 0.45 0 0 0.22 0.22 0 0 0.22 0.22 0 0 0.23 0.23 0 0 0.22 0.22 0 0 0.22 0.22 0 0 0.45 0.22 0 0 0.66 0.23 0 0 0.67 0.22 0 0 2.67 -0.89 0 0 0.22zm-5.11 -9.78l-0.67 0 0 0.22 -0.67 0 0 0.22 -0.66 0 0 0.23 -0.45 0 0 0.22 -0.44 0 0 0.22 -0.23 0 0 0.22 -0.44 0 0 0.23 -0.22 0 0 0.22 -0.23 0 0 0.22 -0.44 0 0 0.22 -0.22 0 0 0.22 -0.22 0 0 0.45 -0.23 0 0 0.22 -0.22 0 0 0.22 -0.22 0 0 0.23 -0.22 0 0 0.44 -0.23 0 0 0.44 -0.22 0 0 0.23 -0.22 0 0 0.44 -0.22 0 0 0.67 -0.22 0 0 0.44 -0.23 0 0 0.67 -0.22 0 0 1.11 -0.22 0 0 1.33 -0.22 0 0 4.23 0.22 0 0 1.78 0.22 0 0 0.66 0.22 0 0 0.67 0.23 0 0 0.67 0.22 0 0 0.44 0.22 0 0 0.45 0.22 0 0 0.44 0.22 0 0 0.45 0.23 0 0 0.22 0.22 0 0 0.44 0.22 0 0 0.22 0.22 0 0 0.23 0.23 0 0 0.22 0.22 0 0 0.22 0.22 0 0 0.22 0.22 0 0 0.23 0.22 0 0 0.22 0.23 0 0 0.22 0.44 0 0 0.22 0.22 0 0 0.22 0.45 0 0 0.23 0.44 0 0 0.22 0.45 0 0 0.22 0.44 0 0 0.22 0.67 0 0 0.23 0.89 0 0 0.22 1.78 0 0 0.22 2.66 0 0 -0.22 2.67 0 0 -0.22 1.11 0 0 -0.23 0.89 0 0 -0.22 0.45 0 0 -0.22 0.66 0 0 -0.22 0.45 0 0 -0.23 0.44 0 0 -0.88 -0.22 0 0 -0.67 -0.22 0 0 -0.67 -0.22 0 0 -0.66 -0.23 0 0 -0.45 -0.22 0 0 -0.67 -0.22 0 0 -0.22 -0.22 0 0 0.22 -0.67 0 0 0.23 -0.67 0 0 0.22 -0.89 0 0 0.22 -1.11 0 0 0.22 -4.22 0 0 -0.22 -0.67 0 0 -0.22 -0.44 0 0 -0.22 -0.45 0 0 -0.23 -0.22 0 0 -0.22 -0.22 0 0 -0.22 -0.22 0 0 -0.22 -0.23 0 0 -0.23 -0.22 0 0 -0.44 -0.22 0 0 -0.22 -0.22 0 0 -0.67 -0.23 0 0 -0.44 -0.22 0 0 -1.56 1.78 0 0 -0.22 1.56 0 0 -0.22 1.33 0 0 -0.23 1.33 0 0 -0.22 1.78 0 0 -0.22 1.78 0 0 -0.22 1.11 0 0 -0.23 1.56 0 0 -0.22 1.33 0 0 -2.67 -0.22 0 0 -2 -0.22 0 0 -0.88 -0.23 0 0 -0.45 -0.22 0 0 -0.67 -0.22 0 0 -0.66 -0.22 0 0 -0.45 -0.22 0 0 -0.44 -0.23 0 0 -0.22 -0.22 0 0 -0.45 -0.22 0 0 -0.22 -0.22 0 0 -0.22 -0.23 0 0 -0.45 -0.22 0 0 -0.22 -0.22 0 0 -0.22 -0.45 0 0 -0.22 -0.22 0 0 -0.23 -0.22 0 0 -0.22 -0.44 0 0 -0.22 -0.23 0 0 -0.22 -0.44 0 0 -0.23 -0.67 0 0 -0.22 -0.66 0 0 -0.22 -0.89 0 0 -0.22 -4.89 0 0 0.22z"/>
   <polygon class="fil0" points="286.52,99.8 286.52,95.58 286.08,95.58 286.08,95.8 284.08,95.8 284.08,95.58 283.85,95.58 283.85,95.36 283.63,95.36 283.63,95.14 283.41,95.14 283.41,94.91 283.19,94.91 283.19,94.25 282.96,94.25 282.96,81.35 286.52,81.35 286.52,76.91 282.96,76.91 282.96,70.46 282.07,70.46 282.07,70.69 281.19,70.69 281.19,70.91 280.74,70.91 280.74,71.13 279.85,71.13 279.85,71.35 278.96,71.35 278.96,71.57 278.07,71.57 278.07,71.8 276.96,71.8 276.96,72.02 276.3,72.02 276.3,77.13 273.85,77.13 273.85,81.35 276.3,81.35 276.3,94.91 276.52,94.91 276.52,96.03 276.74,96.03 276.74,96.69 276.96,96.69 276.96,97.14 277.18,97.14 277.18,97.36 277.41,97.36 277.41,97.8 277.63,97.8 277.63,98.03 277.85,98.03 277.85,98.47 278.07,98.47 278.07,98.69 278.3,98.69 278.3,98.91 278.74,98.91 278.74,99.14 278.96,99.14 278.96,99.36 279.41,99.36 279.41,99.58 279.85,99.58 279.85,99.8 280.3,99.8 280.3,100.03 280.96,100.03 280.96,100.25 285.19,100.25 285.19,100.03 285.85,100.03 285.85,99.8 "/>
   <polygon class="fil0" points="138.26,100.03 144.93,100.03 144.93,66.46 138.26,66.46 "/>
   <polygon class="fil0" points="239.4,100.03 246.07,100.03 246.07,66.46 239.4,66.46 "/>
   <polygon class="fil0" points="204.28,76.91 203.39,76.91 203.39,77.13 202.94,77.13 202.94,77.35 202.5,77.35 202.5,77.58 202.05,77.58 202.05,77.8 201.83,77.8 201.83,78.02 201.39,78.02 201.39,78.24 201.17,78.24 201.17,78.47 200.72,78.47 200.72,78.69 200.5,78.69 200.5,78.91 200.28,78.91 200.28,79.13 200.05,79.13 200.05,79.35 199.83,79.35 199.83,79.58 199.61,79.58 199.61,80.02 199.39,80.02 199.39,80.24 199.16,80.24 199.16,80.47 198.94,80.47 198.94,80.91 198.72,80.91 198.72,81.35 198.5,81.35 198.5,81.58 198.27,81.58 198.27,82.02 198.05,82.02 198.05,82.69 197.83,82.69 197.83,83.36 197.61,83.36 197.61,84.24 197.39,84.24 197.39,85.13 197.16,85.13 197.16,86.91 196.94,86.91 196.94,90.02 197.16,90.02 197.16,92.25 197.39,92.25 197.39,93.14 197.61,93.14 197.61,93.8 197.83,93.8 197.83,94.47 198.05,94.47 198.05,94.91 198.27,94.91 198.27,95.36 198.5,95.36 198.5,95.8 198.72,95.8 198.72,96.25 198.94,96.25 198.94,96.47 199.16,96.47 199.16,96.91 199.39,96.91 199.39,97.14 199.61,97.14 199.61,97.36 199.83,97.36 199.83,97.58 200.05,97.58 200.05,97.8 200.28,97.8 200.28,98.03 200.5,98.03 200.5,98.25 200.72,98.25 200.72,98.47 200.94,98.47 200.94,98.69 201.17,98.69 201.17,98.91 201.61,98.91 201.61,99.14 201.83,99.14 201.83,99.36 202.28,99.36 202.28,99.58 202.72,99.58 202.72,99.8 203.17,99.8 203.17,100.03 203.83,100.03 203.83,100.25 205.39,100.25 205.39,100.47 207.83,100.47 207.83,100.25 209.61,100.25 209.61,100.03 210.28,100.03 210.28,99.8 210.72,99.8 210.72,99.58 211.17,99.58 211.17,99.36 211.61,99.36 211.61,99.14 211.83,99.14 211.83,98.91 212.06,98.91 212.06,98.47 211.83,98.47 211.83,97.8 211.61,97.8 211.61,97.14 211.39,97.14 211.39,96.47 211.17,96.47 211.17,95.8 210.95,95.8 210.95,95.14 210.72,95.14 210.72,94.91 210.28,94.91 210.28,95.14 210.06,95.14 210.06,95.36 209.39,95.36 209.39,95.58 206.5,95.58 206.5,95.36 206.05,95.36 206.05,95.14 205.83,95.14 205.83,94.91 205.61,94.91 205.61,94.69 205.39,94.69 205.39,94.47 205.17,94.47 205.17,94.25 204.94,94.25 204.94,93.8 204.72,93.8 204.72,93.36 204.5,93.36 204.5,92.91 204.28,92.91 204.28,92.25 204.05,92.25 204.05,91.58 203.83,91.58 203.83,90.02 203.61,90.02 203.61,86.24 203.83,86.24 203.83,85.13 204.05,85.13 204.05,84.24 204.28,84.24 204.28,83.58 204.5,83.58 204.5,83.13 204.72,83.13 204.72,82.69 204.94,82.69 204.94,82.47 205.17,82.47 205.17,82.24 205.39,82.24 205.39,82.02 205.61,82.02 205.61,81.8 205.83,81.8 205.83,81.58 206.05,81.58 206.05,81.35 206.72,81.35 206.72,81.13 209.39,81.13 209.39,81.35 210.06,81.35 210.06,81.58 210.28,81.58 210.28,81.8 210.72,81.8 210.72,81.58 210.95,81.58 210.95,80.91 211.17,80.91 211.17,80.24 211.39,80.24 211.39,79.8 211.61,79.8 211.61,79.13 211.83,79.13 211.83,78.47 212.06,78.47 212.06,78.24 211.83,78.24 211.83,78.02 211.61,78.02 211.61,77.8 211.17,77.8 211.17,77.58 210.72,77.58 210.72,77.35 210.28,77.35 210.28,77.13 209.83,77.13 209.83,76.91 208.94,76.91 208.94,76.69 204.28,76.69 "/>
   <polygon class="fil2" points="259.85,80.91 259.18,80.91 259.18,81.13 258.96,81.13 258.96,81.35 258.51,81.35 258.51,81.58 258.29,81.58 258.29,82.02 258.07,82.02 258.07,82.47 257.85,82.47 257.85,82.91 257.62,82.91 257.62,83.8 257.4,83.8 257.4,84.47 257.18,84.47 257.18,86.47 256.96,86.47 256.96,90.25 257.18,90.25 257.18,92.25 257.4,92.25 257.4,92.91 257.62,92.91 257.62,93.8 257.85,93.8 257.85,94.25 258.07,94.25 258.07,94.69 258.29,94.69 258.29,94.91 258.51,94.91 258.51,95.14 258.74,95.14 258.74,95.36 258.96,95.36 258.96,95.58 259.4,95.58 259.4,95.8 261.85,95.8 261.85,95.58 262.29,95.58 262.29,95.36 262.51,95.36 262.51,95.14 262.74,95.14 262.74,94.91 262.96,94.91 262.96,94.47 263.18,94.47 263.18,94.02 263.4,94.02 263.4,93.36 263.63,93.36 263.63,92.69 263.85,92.69 263.85,91.58 264.07,91.58 264.07,85.8 263.85,85.8 263.85,84.02 263.63,84.02 263.63,83.36 263.4,83.36 263.4,82.69 263.18,82.69 263.18,82.24 262.96,82.24 262.96,81.8 262.74,81.8 262.74,81.58 262.51,81.58 262.51,81.35 262.29,81.35 262.29,81.13 261.85,81.13 261.85,80.91 261.18,80.91 261.18,80.69 259.85,80.69 "/>
   <polygon class="fil1" points="269.63,113.81 268.96,113.81 268.96,114.03 267.85,114.03 267.85,114.25 267.63,114.25 267.63,127.14 269.4,127.14 269.4,115.36 269.63,115.36 269.63,115.14 274.07,115.14 274.07,115.36 274.52,115.36 274.52,115.59 274.74,115.59 274.74,115.81 274.96,115.81 274.96,116.03 275.18,116.03 275.18,116.48 275.41,116.48 275.41,116.92 275.63,116.92 275.63,118.48 275.85,118.48 275.85,127.14 277.41,127.14 277.41,117.36 277.18,117.36 277.18,116.03 277.41,116.03 277.41,115.81 277.85,115.81 277.85,115.59 278.3,115.59 278.3,115.36 279.19,115.36 279.19,115.14 282.3,115.14 282.3,115.36 282.74,115.36 282.74,115.59 282.96,115.59 282.96,115.81 283.19,115.81 283.19,116.03 283.41,116.03 283.41,116.48 283.63,116.48 283.63,117.36 283.85,117.36 283.85,118.48 284.08,118.48 284.08,127.14 285.63,127.14 285.63,117.36 285.41,117.36 285.41,116.48 285.19,116.48 285.19,115.81 284.97,115.81 284.97,115.36 284.74,115.36 284.74,114.92 284.52,114.92 284.52,114.7 284.3,114.7 284.3,114.47 284.08,114.47 284.08,114.25 283.63,114.25 283.63,114.03 283.41,114.03 283.41,113.81 282.74,113.81 282.74,113.59 278.96,113.59 278.96,113.81 278.3,113.81 278.3,114.03 277.85,114.03 277.85,114.25 277.41,114.25 277.41,114.47 276.96,114.47 276.96,114.7 276.52,114.7 276.52,114.92 276.3,114.92 276.3,114.7 276.07,114.7 276.07,114.47 275.85,114.47 275.85,114.25 275.41,114.25 275.41,114.03 274.96,114.03 274.96,113.81 274.52,113.81 274.52,113.59 269.63,113.59 "/>
   <path class="fil3" d="M184.49 119.36l0.23 0 0 -1.33 0.22 0 0 -0.44 0.22 0 0 -0.45 0.22 0 0 -0.44 0.22 0 0 -0.22 0.23 0 0 -0.23 0.22 0 0 -0.22 0.22 0 0 -0.22 0.45 0 0 -0.22 0.22 0 0 -0.23 0.44 0 0 -0.22 4.67 0 0 0.22 0.22 0 0 8.67 -0.22 0 0 0.22 -0.44 0 0 0.23 -0.45 0 0 0.22 -0.66 0 0 0.22 -0.45 0 0 0.22 -2.44 0 0 -0.22 -0.45 0 0 -0.22 -0.44 0 0 -0.22 -0.45 0 0 -0.23 -0.22 0 0 -0.22 -0.22 0 0 -0.22 -0.23 0 0 -0.22 -0.22 0 0 -0.45 -0.22 0 0 -0.22 -0.22 0 0 -0.67 -0.22 0 0 -1.33 -0.23 0 0 -1.56zm1.34 12.67l3.33 0 0 -0.22 1.34 0 0 -0.22 0.44 0 0 -0.22 0.67 0 0 -0.22 0.22 0 0 -0.23 0.44 0 0 -0.22 0.23 0 0 -0.22 0.22 0 0 -0.22 0.22 0 0 -0.23 0.22 0 0 -0.44 0.22 0 0 -0.44 0.23 0 0 -1.12 0.22 0 0 -14 -1.11 0 0 -0.22 -1.11 0 0 -0.22 -4.45 0 0 0.22 -0.67 0 0 0.22 -0.44 0 0 0.22 -0.45 0 0 0.22 -0.22 0 0 0.23 -0.22 0 0 0.22 -0.44 0 0 0.22 -0.23 0 0 0.22 -0.22 0 0 0.45 -0.22 0 0 0.22 -0.22 0 0 0.22 -0.23 0 0 0.45 -0.22 0 0 0.66 -0.22 0 0 0.67 -0.22 0 0 0.89 -0.22 0 0 2.22 0.22 0 0 1.34 0.22 0 0 0.66 0.22 0 0 0.67 0.22 0 0 0.22 0.23 0 0 0.45 0.22 0 0 0.22 0.22 0 0 0.22 0.22 0 0 0.22 0.23 0 0 0.23 0.22 0 0 0.22 0.22 0 0 0.22 0.44 0 0 0.22 0.45 0 0 0.23 0.89 0 0 0.22 0.44 0 0 0.22 2.45 0 0 -0.22 0.89 0 0 -0.22 0.44 0 0 -0.23 0.45 0 0 -0.22 0.44 0 0 -0.22 0.22 0 0 2.44 -0.22 0 0 0.45 -0.22 0 0 0.44 -0.22 0 0 0.45 -0.23 0 0 0.22 -0.22 0 0 0.22 -0.44 0 0 0.22 -0.45 0 0 0.23 -0.89 0 0 0.22 -3.33 0 0 -0.22 -1.11 0 0 -0.23 -0.67 0 0 -0.22 -0.44 0 0 0.89 -0.23 0 0 0.67 0.23 0 0 0.22 1.33 0 0 0.22 0.67 0 0 0.22z"/>
   <polygon class="fil4" points="256.73,115.14 256.29,115.14 256.29,115.36 255.85,115.36 255.85,115.59 255.4,115.59 255.4,115.81 255.18,115.81 255.18,116.03 254.96,116.03 254.96,116.25 254.73,116.25 254.73,116.7 254.51,116.7 254.51,116.92 254.29,116.92 254.29,117.36 254.07,117.36 254.07,117.81 253.85,117.81 253.85,118.48 253.62,118.48 253.62,122.48 253.85,122.48 253.85,122.92 254.07,122.92 254.07,123.59 254.29,123.59 254.29,124.03 254.51,124.03 254.51,124.25 254.73,124.25 254.73,124.48 254.96,124.48 254.96,124.92 255.4,124.92 255.4,125.14 255.62,125.14 255.62,125.37 256.07,125.37 256.07,125.59 256.29,125.59 256.29,125.81 259.4,125.81 259.4,125.59 259.85,125.59 259.85,125.37 260.07,125.37 260.07,125.14 260.51,125.14 260.51,124.92 260.74,124.92 260.74,124.7 260.96,124.7 260.96,124.48 261.18,124.48 261.18,124.03 261.4,124.03 261.4,123.81 261.63,123.81 261.63,123.14 261.85,123.14 261.85,122.7 262.07,122.7 262.07,118.25 261.85,118.25 261.85,117.59 261.63,117.59 261.63,117.14 261.4,117.14 261.4,116.92 261.18,116.92 261.18,116.48 260.96,116.48 260.96,116.25 260.74,116.25 260.74,116.03 260.51,116.03 260.51,115.81 260.29,115.81 260.29,115.59 259.85,115.59 259.85,115.36 259.4,115.36 259.4,115.14 258.96,115.14 258.96,114.92 256.73,114.92 "/>
   <path class="fil3" d="M163.38 118.25l0.22 0 0 -0.44 0.22 0 0 -0.67 0.22 0 0 -0.44 0.23 0 0 -0.22 0.22 0 0 -0.23 0.22 0 0 -0.22 0.22 0 0 -0.22 0.23 0 0 -0.22 0.44 0 0 -0.23 0.67 0 0 -0.22 3.33 0 0 0.22 0.45 0 0 0.23 0.44 0 0 0.22 0.44 0 0 0.22 0.23 0 0 9.56 -0.67 0 0 0.22 -4 0 0 -0.22 -0.45 0 0 -0.22 -0.44 0 0 -0.23 -0.44 0 0 -0.22 -0.23 0 0 -0.22 -0.22 0 0 -0.22 -0.22 0 0 -0.23 -0.22 0 0 -0.44 -0.23 0 0 -0.22 -0.22 0 0 -0.67 -0.22 0 0 -0.44 -0.22 0 0 -4.23zm8.89 -10.89l-1.11 0 0 6.89 -0.67 0 0 -0.22 -0.44 0 0 -0.22 -0.45 0 0 -0.22 -4 0 0 0.22 -0.44 0 0 0.22 -0.45 0 0 0.22 -0.44 0 0 0.22 -0.23 0 0 0.23 -0.44 0 0 0.22 -0.22 0 0 0.22 -0.23 0 0 0.45 -0.22 0 0 0.22 -0.22 0 0 0.22 -0.22 0 0 0.45 -0.22 0 0 0.44 -0.23 0 0 0.44 -0.22 0 0 1.12 -0.22 0 0 3.77 0.22 0 0 0.89 0.22 0 0 0.67 0.23 0 0 0.44 0.22 0 0 0.45 0.22 0 0 0.22 0.22 0 0 0.22 0.22 0 0 0.45 0.23 0 0 0.22 0.22 0 0 0.22 0.44 0 0 0.23 0.23 0 0 0.22 0.44 0 0 0.22 0.45 0 0 0.22 0.22 0 0 0.22 0.66 0 0 0.23 4.45 0 0 -0.23 1.56 0 0 -0.22 0.66 0 0 -0.22 0.22 0 0 -19.56 -0.66 0 0 0.22z"/>
   <polygon class="fil2" points="166.27,115.36 165.6,115.36 165.6,115.59 165.16,115.59 165.16,115.81 164.93,115.81 164.93,116.03 164.71,116.03 164.71,116.25 164.49,116.25 164.49,116.48 164.27,116.48 164.27,116.7 164.04,116.7 164.04,117.14 163.82,117.14 163.82,117.81 163.6,117.81 163.6,118.25 163.38,118.25 163.38,122.48 163.6,122.48 163.6,122.92 163.82,122.92 163.82,123.59 164.04,123.59 164.04,123.81 164.27,123.81 164.27,124.25 164.49,124.25 164.49,124.48 164.71,124.48 164.71,124.7 164.93,124.7 164.93,124.92 165.16,124.92 165.16,125.14 165.6,125.14 165.6,125.37 166.04,125.37 166.04,125.59 166.49,125.59 166.49,125.81 170.49,125.81 170.49,125.59 171.16,125.59 171.16,116.03 170.93,116.03 170.93,115.81 170.49,115.81 170.49,115.59 170.05,115.59 170.05,115.36 169.6,115.36 169.6,115.14 166.27,115.14 "/>
   <polygon class="fil2" points="187.38,115.36 186.94,115.36 186.94,115.59 186.72,115.59 186.72,115.81 186.27,115.81 186.27,116.03 186.05,116.03 186.05,116.25 185.83,116.25 185.83,116.48 185.6,116.48 185.6,116.7 185.38,116.7 185.38,117.14 185.16,117.14 185.16,117.59 184.94,117.59 184.94,118.03 184.72,118.03 184.72,119.36 184.49,119.36 184.49,120.92 184.72,120.92 184.72,122.25 184.94,122.25 184.94,122.92 185.16,122.92 185.16,123.14 185.38,123.14 185.38,123.59 185.6,123.59 185.6,123.81 185.83,123.81 185.83,124.03 186.05,124.03 186.05,124.25 186.27,124.25 186.27,124.48 186.72,124.48 186.72,124.7 187.16,124.7 187.16,124.92 187.61,124.92 187.61,125.14 190.05,125.14 190.05,124.92 190.5,124.92 190.5,124.7 191.16,124.7 191.16,124.48 191.61,124.48 191.61,124.25 192.05,124.25 192.05,124.03 192.27,124.03 192.27,115.36 192.05,115.36 192.05,115.14 187.38,115.14 "/>
   <path class="fil3" d="M253.62 118.48l0.23 0 0 -0.67 0.22 0 0 -0.45 0.22 0 0 -0.44 0.22 0 0 -0.22 0.22 0 0 -0.45 0.23 0 0 -0.22 0.22 0 0 -0.22 0.22 0 0 -0.22 0.45 0 0 -0.23 0.44 0 0 -0.22 0.44 0 0 -0.22 2.23 0 0 0.22 0.44 0 0 0.22 0.45 0 0 0.23 0.44 0 0 0.22 0.22 0 0 0.22 0.23 0 0 0.22 0.22 0 0 0.23 0.22 0 0 0.44 0.22 0 0 0.22 0.23 0 0 0.45 0.22 0 0 0.66 0.22 0 0 4.45 -0.22 0 0 0.44 -0.22 0 0 0.67 -0.23 0 0 0.22 -0.22 0 0 0.45 -0.22 0 0 0.22 -0.22 0 0 0.22 -0.23 0 0 0.22 -0.44 0 0 0.23 -0.22 0 0 0.22 -0.45 0 0 0.22 -3.11 0 0 -0.22 -0.22 0 0 -0.22 -0.45 0 0 -0.23 -0.22 0 0 -0.22 -0.44 0 0 -0.44 -0.23 0 0 -0.23 -0.22 0 0 -0.22 -0.22 0 0 -0.44 -0.22 0 0 -0.67 -0.22 0 0 -0.44 -0.23 0 0 -4zm3.11 -4.89l-0.44 0 0 0.22 -0.89 0 0 0.22 -0.44 0 0 0.22 -0.23 0 0 0.22 -0.44 0 0 0.23 -0.22 0 0 0.22 -0.22 0 0 0.22 -0.23 0 0 0.22 -0.22 0 0 0.23 -0.22 0 0 0.22 -0.22 0 0 0.44 -0.23 0 0 0.45 -0.22 0 0 0.44 -0.22 0 0 0.67 -0.22 0 0 0.44 -0.23 0 0 4 0.23 0 0 1.12 0.22 0 0 0.44 0.22 0 0 0.44 0.22 0 0 0.45 0.23 0 0 0.22 0.22 0 0 0.45 0.22 0 0 0.22 0.22 0 0 0.22 0.23 0 0 0.22 0.22 0 0 0.23 0.44 0 0 0.22 0.22 0 0 0.22 0.45 0 0 0.22 0.44 0 0 0.22 0.67 0 0 0.23 3.11 0 0 -0.23 0.67 0 0 -0.22 0.44 0 0 -0.22 0.45 0 0 -0.22 0.44 0 0 -0.22 0.23 0 0 -0.23 0.22 0 0 -0.22 0.22 0 0 -0.22 0.22 0 0 -0.22 0.22 0 0 -0.23 0.23 0 0 -0.44 0.22 0 0 -0.22 0.22 0 0 -0.45 0.22 0 0 -0.44 0.23 0 0 -0.67 0.22 0 0 -1.33 0.22 0 0 -2.67 -0.22 0 0 -0.89 -0.22 0 0 -0.44 -0.23 0 0 -0.67 -0.22 0 0 -0.44 -0.22 0 0 -0.45 -0.22 0 0 -0.22 -0.23 0 0 -0.22 -0.22 0 0 -0.23 -0.22 0 0 -0.22 -0.22 0 0 -0.22 -0.22 0 0 -0.22 -0.23 0 0 -0.23 -0.22 0 0 -0.22 -0.44 0 0 -0.22 -0.45 0 0 -0.22 -0.44 0 0 -0.22 -0.89 0 0 -0.23 -2.23 0 0 0.23z"/>
   <path class="fil3" d="M215.39 122.03l0.22 0 0 -0.22 0.23 0 0 -0.22 0.22 0 0 -0.22 0.22 0 0 -0.23 0.22 0 0 -0.22 0.67 0 0 -0.22 4.22 0 0 0.22 0.22 0 0 4.89 -4.66 0 0 -0.22 -0.45 0 0 -0.22 -0.44 0 0 -0.23 -0.22 0 0 -0.22 -0.23 0 0 -0.44 -0.22 0 0 -2.45zm1.33 -8.44l-0.88 0 0 0.22 -0.67 0 0 1.55 0.67 0 0 -0.22 1.33 0 0 -0.22 2.44 0 0 0.22 0.45 0 0 0.22 0.44 0 0 0.23 0.23 0 0 0.22 0.22 0 0 0.22 0.22 0 0 0.22 0.22 0 0 0.45 0.22 0 0 2.66 -1.11 0 0 -0.22 -3.11 0 0 0.22 -1.11 0 0 0.23 -0.44 0 0 0.22 -0.45 0 0 0.22 -0.44 0 0 0.22 -0.23 0 0 0.23 -0.22 0 0 0.22 -0.22 0 0 0.22 -0.22 0 0 0.45 -0.22 0 0 0.44 -0.23 0 0 2.89 0.23 0 0 0.44 0.22 0 0 0.45 0.22 0 0 0.22 0.22 0 0 0.45 0.45 0 0 0.22 0.22 0 0 0.22 0.44 0 0 0.22 0.23 0 0 0.22 1.11 0 0 0.23 3.55 0 0 -0.23 2 0 0 -0.22 0.89 0 0 -9.56 -0.22 0 0 -1.11 -0.22 0 0 -0.66 -0.22 0 0 -0.23 -0.23 0 0 -0.44 -0.22 0 0 -0.22 -0.22 0 0 -0.23 -0.22 0 0 -0.22 -0.45 0 0 -0.22 -0.22 0 0 -0.22 -0.89 0 0 -0.22 -0.44 0 0 -0.23 -3.12 0 0 0.23z"/>
   <polygon class="fil2" points="286.52,95.58 286.52,81.35 282.96,81.35 282.96,94.25 283.19,94.25 283.19,94.91 283.41,94.91 283.41,95.14 283.63,95.14 283.63,95.36 283.85,95.36 283.85,95.58 284.08,95.58 284.08,95.8 286.08,95.8 286.08,95.58 "/>
   <polygon class="fil2" points="160.26,88.25 159.15,88.25 159.15,88.47 158.49,88.47 158.49,88.69 158.04,88.69 158.04,88.91 157.38,88.91 157.38,89.13 156.93,89.13 156.93,89.36 156.71,89.36 156.71,89.58 156.49,89.58 156.49,89.8 156.26,89.8 156.26,90.02 156.04,90.02 156.04,90.25 155.82,90.25 155.82,90.69 155.6,90.69 155.6,91.58 155.37,91.58 155.37,94.47 155.6,94.47 155.6,94.91 155.82,94.91 155.82,95.36 156.04,95.36 156.04,95.58 156.26,95.58 156.26,95.8 156.49,95.8 156.49,96.03 156.71,96.03 156.71,96.25 157.15,96.25 157.15,96.47 158.04,96.47 158.04,96.69 161.38,96.69 161.38,96.47 161.82,96.47 161.82,88.02 160.26,88.02 "/>
   <polygon class="fil2" points="224.28,80.69 223.39,80.69 223.39,80.91 223.17,80.91 223.17,81.13 222.73,81.13 222.73,81.35 222.5,81.35 222.5,81.58 222.28,81.58 222.28,81.8 222.06,81.8 222.06,82.24 221.84,82.24 221.84,82.47 221.61,82.47 221.61,82.91 221.39,82.91 221.39,83.58 221.17,83.58 221.17,84.91 220.95,84.91 220.95,85.8 220.73,85.8 220.73,87.58 222.06,87.58 222.06,87.36 222.95,87.36 222.95,87.13 224.5,87.13 224.5,86.91 226.06,86.91 226.06,86.69 227.84,86.69 227.84,86.47 228.73,86.47 228.73,83.8 228.51,83.8 228.51,83.13 228.28,83.13 228.28,82.47 228.06,82.47 228.06,82.02 227.84,82.02 227.84,81.8 227.62,81.8 227.62,81.58 227.39,81.58 227.39,81.35 227.17,81.35 227.17,81.13 226.95,81.13 226.95,80.91 226.5,80.91 226.5,80.69 225.62,80.69 225.62,80.47 224.28,80.47 "/>
   <polygon class="fil1" points="204.94,109.81 204.5,109.81 204.5,124.25 204.72,124.25 204.72,125.14 204.94,125.14 204.94,125.59 205.17,125.59 205.17,126.03 205.39,126.03 205.39,126.26 205.61,126.26 205.61,126.48 205.83,126.48 205.83,126.7 206.05,126.7 206.05,126.92 206.5,126.92 206.5,127.14 206.94,127.14 206.94,127.37 210.5,127.37 210.5,127.14 211.17,127.14 211.17,126.92 211.61,126.92 211.61,126.7 211.83,126.7 211.83,125.59 211.61,125.59 211.61,125.14 211.39,125.14 211.39,125.37 210.95,125.37 210.95,125.59 210.5,125.59 210.5,125.81 207.61,125.81 207.61,125.59 207.17,125.59 207.17,125.37 206.94,125.37 206.94,125.14 206.72,125.14 206.72,124.92 206.5,124.92 206.5,124.25 206.28,124.25 206.28,123.81 206.05,123.81 206.05,115.14 211.39,115.14 211.39,113.81 206.05,113.81 206.05,109.58 204.94,109.58 "/>
   <polygon class="fil3" points="244.95,113.59 244.06,113.59 244.06,113.81 243.62,113.81 243.62,114.03 243.18,114.03 243.18,114.25 242.73,114.25 242.73,114.47 242.29,114.47 242.29,114.7 242.06,114.7 242.06,114.92 241.84,114.92 241.84,115.14 241.62,115.14 241.62,115.36 241.4,115.36 241.4,115.59 241.18,115.59 241.18,116.03 240.95,116.03 240.95,116.25 240.73,116.25 240.73,116.7 240.51,116.7 240.51,117.36 240.29,117.36 240.29,117.81 240.06,117.81 240.06,118.92 239.84,118.92 239.84,122.03 240.06,122.03 240.06,123.14 240.29,123.14 240.29,123.59 240.51,123.59 240.51,124.25 240.73,124.25 240.73,124.7 240.95,124.7 240.95,124.92 241.18,124.92 241.18,125.37 241.4,125.37 241.4,125.59 241.62,125.59 241.62,125.81 241.84,125.81 241.84,126.03 242.06,126.03 242.06,126.26 242.51,126.26 242.51,126.48 242.73,126.48 242.73,126.7 243.18,126.7 243.18,126.92 243.84,126.92 243.84,127.14 244.29,127.14 244.29,127.37 248.29,127.37 248.29,127.14 248.96,127.14 248.96,126.92 249.4,126.92 249.4,126.7 249.62,126.7 249.62,125.37 248.73,125.37 248.73,125.59 248.07,125.59 248.07,125.81 244.73,125.81 244.73,125.59 244.29,125.59 244.29,125.37 243.84,125.37 243.84,125.14 243.4,125.14 243.4,124.92 243.18,124.92 243.18,124.7 242.95,124.7 242.95,124.48 242.73,124.48 242.73,124.25 242.51,124.25 242.51,123.81 242.29,123.81 242.29,123.37 242.06,123.37 242.06,122.92 241.84,122.92 241.84,121.59 241.62,121.59 241.62,119.36 241.84,119.36 241.84,118.03 242.06,118.03 242.06,117.59 242.29,117.59 242.29,116.92 242.51,116.92 242.51,116.7 242.73,116.7 242.73,116.25 242.95,116.25 242.95,116.03 243.18,116.03 243.18,115.81 243.62,115.81 243.62,115.59 243.84,115.59 243.84,115.36 244.51,115.36 244.51,115.14 244.95,115.14 244.95,114.92 247.62,114.92 247.62,115.14 248.29,115.14 248.29,115.36 249.18,115.36 249.18,114.92 249.4,114.92 249.4,114.03 249.18,114.03 249.18,113.81 248.51,113.81 248.51,113.59 247.62,113.59 247.62,113.36 244.95,113.36 "/>
   <polygon class="fil5" points="36.45,66.68 37.34,66.68 37.34,66.46 102.25,66.46 102.25,31.79 34.9,31.79 34.9,32.01 102.03,32.01 102.03,66.24 37.12,66.24 37.12,66.46 36.45,66.46 "/>
   <polygon class="fil3" points="230.73,125.81 230.28,125.81 230.28,125.59 229.84,125.59 229.84,125.37 229.62,125.37 229.62,125.14 229.39,125.14 229.39,107.14 228.51,107.14 228.51,107.36 227.62,107.36 227.62,124.92 227.84,124.92 227.84,125.59 228.06,125.59 228.06,126.03 228.28,126.03 228.28,126.48 228.51,126.48 228.51,126.7 228.95,126.7 228.95,126.92 229.39,126.92 229.39,127.14 230.28,127.14 230.28,127.37 231.17,127.37 231.17,126.03 230.73,126.03 "/>
   <polygon class="fil4" points="217.17,120.92 216.5,120.92 216.5,121.14 216.28,121.14 216.28,121.37 216.06,121.37 216.06,121.59 215.84,121.59 215.84,121.81 215.61,121.81 215.61,122.03 215.39,122.03 215.39,124.48 215.61,124.48 215.61,124.92 215.84,124.92 215.84,125.14 216.06,125.14 216.06,125.37 216.5,125.37 216.5,125.59 216.95,125.59 216.95,125.81 221.61,125.81 221.61,120.92 221.39,120.92 221.39,120.7 217.17,120.7 "/>
   <polygon class="fil3" points="177.38,127.14 179.16,127.14 179.16,113.81 177.38,113.81 "/>
   <polygon class="fil6" points="198.27,127.14 200.05,127.14 200.05,113.81 198.27,113.81 "/>
   <polygon class="fil1" points="234.51,124.92 234.28,124.92 234.28,125.14 234.06,125.14 234.06,125.37 233.84,125.37 233.84,126.7 234.06,126.7 234.06,126.92 234.28,126.92 234.28,127.14 234.51,127.14 234.51,127.37 236.06,127.37 236.06,127.14 236.29,127.14 236.29,126.92 236.51,126.92 236.51,126.7 236.73,126.7 236.73,125.37 236.51,125.37 236.51,125.14 236.29,125.14 236.29,124.92 236.06,124.92 236.06,124.7 234.51,124.7 "/>
   <polygon class="fil3" points="198.5,108.69 198.27,108.69 198.27,108.92 198.05,108.92 198.05,110.47 198.27,110.47 198.27,110.7 198.5,110.7 198.5,110.92 199.83,110.92 199.83,110.7 200.05,110.7 200.05,110.47 200.28,110.47 200.28,110.25 200.5,110.25 200.5,109.14 200.28,109.14 200.28,108.92 200.05,108.92 200.05,108.69 199.83,108.69 199.83,108.47 198.5,108.47 "/>
   <polygon class="fil3" points="177.6,108.69 177.38,108.69 177.38,108.92 177.16,108.92 177.16,109.14 176.94,109.14 176.94,110.25 177.16,110.25 177.16,110.47 177.38,110.47 177.38,110.7 177.6,110.7 177.6,110.92 178.94,110.92 178.94,110.7 179.16,110.7 179.16,110.47 179.38,110.47 179.38,108.92 179.16,108.92 179.16,108.69 178.94,108.69 178.94,108.47 177.6,108.47 "/>
   <polygon class="fil7" points="231.17,126.7 231.39,126.7 231.39,125.81 230.73,125.81 230.73,126.03 231.17,126.03 "/>
  </g>
 </g>
</svg>
