<?xml version="1.0" encoding="utf-8"?>
<!-- Generator: Adobe Illustrator 24.0.2, SVG Export Plug-In . SVG Version: 6.00 Build 0)  -->
<svg version="1.1" id="Capa_1" xmlns="http://www.w3.org/2000/svg" xmlns:xlink="http://www.w3.org/1999/xlink" x="0px" y="0px"
	 viewBox="0 0 203.93 40.55" style="enable-background:new 0 0 203.93 40.55;" xml:space="preserve">
<style type="text/css">
	.st0{fill:#008C92;}
	.st1{fill-rule:evenodd;clip-rule:evenodd;fill:#006F73;}
	.st2{fill-rule:evenodd;clip-rule:evenodd;fill:#F8AD00;}
	.st3{fill-rule:evenodd;clip-rule:evenodd;fill:#008C92;}
</style>
<g>
	<path class="st0" d="M152.13,4.91h-0.5v0.68h2.24c1.53,0,2.46-0.99,2.46-2.44c0-2.65-2.69-2.24-4.7-2.24v0.68h0.5V4.91L152.13,4.91
		z M153.1,4.91V1.59c0.94,0,2.16-0.04,2.16,1.59C155.27,4.93,153.99,4.91,153.1,4.91L153.1,4.91z M159.35,4.91h-1.16V3.54h1.18V2.82
		h-1.18V1.59h1.14l0.04,0.7h0.8l-0.04-1.38h-3.43v0.68h0.5v3.32h-0.42v0.68h3.37l0.05-1.47h-0.8L159.35,4.91L159.35,4.91z
		 M165.33,4.91h-1.15V1.59h0.42V0.9h-1.82v0.68h0.42v3.32h-0.42v0.68h3.35l0.07-1.52h-0.81L165.33,4.91L165.33,4.91z M169.4,3.29
		h-1.09l0.57-1.66h0.01L169.4,3.29L169.4,3.29z M169.95,4.91h-0.38v0.68h1.86V4.91h-0.37l-1.55-4h-1.08l-1.65,4h-0.37v0.68h1.74
		V4.91h-0.45l0.33-0.9h1.61L169.95,4.91L169.95,4.91z M171.77,5.59h1.65V4.91h-0.46V2.43h0.01l2.45,3.16h0.72v-4h0.46V0.9h-1.69
		v0.68h0.43v2.43h-0.01c-0.14-0.41-1.98-2.62-2.37-3.11h-1.36v0.68h0.6v3.32h-0.44V5.59L171.77,5.59z M177.1,5.59h3.79l0.05-1.31
		h-0.85l-0.04,0.62h-1.77V4.89l2.62-3.31V0.9h-3.58l-0.04,1.31h0.84l0.04-0.62h1.61V1.6l-2.67,3.34V5.59L177.1,5.59z M184.27,3.29
		h-1.09l0.57-1.66h0.01L184.27,3.29L184.27,3.29z M184.82,4.91h-0.38v0.68h1.86V4.91h-0.37l-1.55-4h-1.08l-1.65,4h-0.37v0.68h1.74
		V4.91h-0.45l0.33-0.9h1.61L184.82,4.91L184.82,4.91z M187.09,4.91h-0.42v0.68h1.82V4.91h-0.42V3.68c0.64,0,0.53,0.08,1.18,1.21
		c0.5,0.85,0.58,0.7,1.53,0.7V4.91c-0.5,0-0.46-0.14-0.98-1c-0.23-0.39-0.37-0.48-0.6-0.5V3.4c1.16-0.04,1.54-1.79,0.48-2.32
		c-0.58-0.29-2.32-0.17-3.05-0.17v0.68h0.46V4.91L187.09,4.91z M188.06,1.59c0.62,0,1.27-0.08,1.27,0.68c0,0.78-0.67,0.68-1.27,0.68
		V1.59L188.06,1.59z M190.96,3.25c0,1.32,0.68,2.42,2.32,2.42c1.64,0,2.32-1.1,2.32-2.42C195.59-0.13,190.96,0.1,190.96,3.25
		L190.96,3.25z M192.02,3.25c0-2.24,2.52-2.24,2.52,0c0,0.9-0.33,1.66-1.26,1.66C192.35,4.91,192.02,4.15,192.02,3.25L192.02,3.25z
		 M199.32,2.23h0.8l-0.04-1.33h-4.27l-0.04,1.33h0.8l0.04-0.64h0.84v3.32h-0.42v0.68h1.82V4.91h-0.42V1.59h0.84L199.32,2.23
		L199.32,2.23z M203.07,4.91h-1.16V3.54h1.18V2.82h-1.18V1.59h1.14l0.04,0.7h0.8l-0.04-1.38h-3.43v0.68h0.5v3.32h-0.42v0.68h3.37
		l0.05-1.47h-0.8L203.07,4.91L203.07,4.91z"/>
	<path class="st0" d="M68.79,34.06H59V5.81h3.59V0H47.1v5.81h3.59v28.25H47.1v5.81h28.48l0.57-12.93h-6.89L68.79,34.06L68.79,34.06z
		 M95.72,22.32c-5.81,0-9.85,0.28-12.87,1.37c-3.13,1.14-5.98,3.93-5.98,8.2c0,4.67,3.25,8.66,9.97,8.66c5.01,0,7.75-2.11,9.74-6.61
		h0.11c-0.28,1.14-0.4,2.16-0.4,4.1v1.82h10.02v-5.81h-3.36c0.11-4.21,0.28-8.31,0.28-13.21c0-8.66-5.07-11.45-13.04-11.45
		c-5.3,0-9.97,1.99-11.9,3.08v7.57h6.83v-3.99c1.37-0.51,3.82-0.85,4.95-0.85c3.76,0,5.64,1.2,5.64,5.69V22.32L95.72,22.32z
		 M95.6,27.22c0,5.47-3.19,7.52-6.38,7.52c-3.13,0-4.39-1.82-4.39-3.59c0-2.56,2.05-3.93,8.54-3.93H95.6L95.6,27.22z M132.83,5.81
		h4.1l-7.8,22.78c-0.51,1.48-0.97,3.13-1.2,4.78h-0.11c-0.23-1.65-0.68-3.3-1.2-4.78l-7.8-22.78h3.36V0h-16.17v5.81h3.19
		l13.38,34.06h9.28l13.38-34.06h3.08V0h-15.49V5.81L132.83,5.81z M144.15,25.29c0,10.14,6.15,15.26,15.66,15.26
		c9.51,0,15.66-6.38,15.66-15.26c0-10.36-5.64-15.89-15.66-15.89C150.07,9.4,144.15,16.74,144.15,25.29L144.15,25.29z M152.8,25.46
		c0-5.41,2.11-9.57,7-9.57c4.9,0,7,3.19,7,9.57c0,5.35-2.11,8.6-7,8.6C154.91,34.06,152.8,30.81,152.8,25.46L152.8,25.46z
		 M176.82,39.87h26.65l0.46-9.97h-7l-0.11,4.16h-10.25v-0.11c0.46-0.17,1.08-0.63,1.65-1.25l15.43-16.86v-5.75h-25.86l-0.23,9.74
		h6.83l0.23-3.93h9.28V16c-0.46,0.23-0.97,0.63-1.48,1.2l-15.6,16.86V39.87L176.82,39.87z"/>
	<path class="st0" d="M40.55,36.49c0,2.23-1.82,4.05-4.05,4.05H4.05C1.82,40.55,0,38.72,0,36.49V4.05C0,1.82,1.82,0,4.05,0h32.44
		c2.23,0,4.05,1.82,4.05,4.05V36.49L40.55,36.49z"/>
	<path class="st1" d="M36.49,40.55H20.55l0.01-0.04l2.85-8.81c0.13-0.4,0.21-0.81,0.25-1.22c0.04-0.3,0.06-0.62,0.05-0.92
		c0.01-0.82-0.07-1.66-0.11-2.49l-0.01-0.32l0,0l-0.01-0.34l0-0.02l0-0.57l1.35-2.3l8.52,2.46V11.82l0,0l0,0l7.09,7.43l-0.01,17.28
		c0,0.4-0.06,0.79-0.17,1.16C39.85,39.34,38.31,40.55,36.49,40.55L36.49,40.55z"/>
	<path class="st2" d="M0,8.91c2.23-0.22,3.7-0.05,4.75,0.38c1.21,0.5,1.77,1.84,2.36,3.26l1.24,3.02c0.59,0.9,0.96,1.01-0.62,1.68
		C7.77,18.17,7.8,19.09,7.84,20l-1.97,1.4l0.06,2.41c0,0,5.14,4.66,6.33,6.4c1.18,1.74,1.63,2.84,1.63,2.84h3.27
		c0,0,2.43-2.13,2.76-3.86c0.34-1.74,0-3.86,0-3.86c-0.95-1.68-0.79-1.54-0.85-3.47L11.34,20v-1.09l22.12-7.09v14.17l-8.52-2.46
		l-1.35,2.3c-0.06,1.96,0.43,4.01-0.17,5.88l-2.86,8.85H4.06c-1.05,0-2.22-0.42-3.06-1.41C0.11,38.12,0,37.02,0,36.49V8.91L0,8.91z"
		/>
	<path class="st3" d="M20.65,40.24l-0.1,0.31H4.06c-1.05,0-2.22-0.42-3.06-1.41C0.11,38.12,0,37.02,0,36.49V8.65
		c0.11-0.01,0.21-0.02,0.31-0.03v0.58v27.3v0c0,0.03,0,0.06,0,0.09l0,0.01l0,0.07l0,0.04l0,0.02l0,0l0,0.01
		c0.06,0.84,0.39,1.61,0.92,2.21c0.37,0.42,0.8,0.73,1.25,0.94c0.09,0.04,0.18,0.08,0.27,0.11l0.05,0.02l0.01,0
		c0.34,0.12,0.7,0.19,1.08,0.21l0.06,0l0.02,0c0.03,0,0.06,0,0.09,0h0h16.27H20.65L20.65,40.24z"/>
</g>
</svg>
